<?xml version="1.0" encoding="UTF-8" standalone="no"?>
<!DOCTYPE svg PUBLIC "-//W3C//DTD SVG 1.1//EN" "http://www.w3.org/Graphics/SVG/1.1/DTD/svg11.dtd">
<svg width="100%" height="100%" viewBox="0 0 362 254" version="1.1" xmlns="http://www.w3.org/2000/svg" xmlns:xlink="http://www.w3.org/1999/xlink" xml:space="preserve" xmlns:serif="http://www.serif.com/" style="fill-rule:evenodd;clip-rule:evenodd;stroke-linejoin:round;stroke-miterlimit:2;">
    <g>
        <path d="M8.98,0.52L352.54,0.52C354.859,0.52 356.988,1.404 358.55,2.823C360.21,4.331 361.24,6.437 361.24,8.775L361.24,245.706C361.24,248.042 360.208,250.15 358.549,251.656C356.986,253.077 354.855,253.96 352.54,253.96L8.98,253.96C6.665,253.96 4.533,253.079 2.968,251.657C1.312,250.152 0.28,248.046 0.28,245.706L0.28,8.775C0.28,6.434 1.309,4.329 2.967,2.822C4.53,1.401 6.661,0.52 8.98,0.52ZM352.54,8.2L8.98,8.2C8.626,8.2 8.325,8.312 8.127,8.492C8.024,8.585 7.96,8.688 7.96,8.775L7.96,245.706C7.96,245.79 8.025,245.893 8.128,245.987C8.328,246.168 8.628,246.281 8.98,246.281L352.54,246.281C352.889,246.281 353.189,246.167 353.389,245.986C353.494,245.891 353.56,245.789 353.56,245.706L353.56,8.775C353.56,8.69 353.495,8.587 353.39,8.493C353.192,8.312 352.892,8.2 352.54,8.2Z" style="fill:white;fill-rule:nonzero;"/>
        <path d="M11.56,1.525L178.864,153.498L346.168,1.525L351.329,7.195L181.444,161.512L178.865,163.856L176.284,161.512L6.4,7.195L11.56,1.525Z" style="fill:white;fill-rule:nonzero;"/>
    </g>
</svg>
