<?xml version="1.0" encoding="UTF-8" standalone="no"?>
<!DOCTYPE svg PUBLIC "-//W3C//DTD SVG 1.1//EN" "http://www.w3.org/Graphics/SVG/1.1/DTD/svg11.dtd">
<svg width="100%" height="100%" viewBox="0 0 4252 4252" version="1.1" xmlns="http://www.w3.org/2000/svg" xmlns:xlink="http://www.w3.org/1999/xlink" xml:space="preserve" xmlns:serif="http://www.serif.com/" style="fill-rule:evenodd;clip-rule:evenodd;stroke-linejoin:round;stroke-miterlimit:2;">
    <g transform="matrix(19.761,0,0,22.0665,-1584.09,-1803.27)">
        <path d="M283.816,224.327C283.379,223.646 281.395,222.709 278.431,221.309C277.698,220.963 276.913,220.592 275.993,220.147L275.918,220.117C272.908,218.585 262.86,213.667 254.529,209.729C249.074,207.151 244.341,204.976 242.751,204.405C240.954,203.759 239.451,203.264 238.444,203.377C237.783,203.453 237.07,203.999 236.166,205.373L236.166,205.387C234.85,207.363 232.601,210.242 230.163,213.229C226.219,218.06 221.982,222.954 220.223,224.952L220.215,224.945C218.134,227.313 215.944,228.649 213.24,228.975C210.789,229.272 208.177,228.639 205.043,227.099L205.012,227.084C204.475,226.814 203.286,226.301 201.815,225.666C194.641,222.571 180.668,216.542 164.581,202.299C158.803,197.185 153.759,191.645 149.569,186.47C142.775,178.078 138.191,170.616 136.371,167.473C132.035,160.037 135.719,156.352 139.121,152.95L139.122,152.949L139.137,152.949C140.504,151.584 142.108,149.656 143.718,147.721C144.675,146.571 145.635,145.417 146.368,144.572L146.367,144.571C148.139,142.51 148.928,140.898 149.994,138.722C150.218,138.264 150.455,137.781 150.731,137.229L150.725,137.226C151.18,136.31 151.3,135.476 151.222,134.719C151.13,133.836 150.784,132.955 150.357,132.125L150.328,132.08C149.484,130.38 144.918,119.352 140.71,109.187C139.002,105.062 137.362,101.104 135.044,95.582C132.494,89.501 130.425,89.636 128.838,89.739C128.343,89.771 127.869,89.802 127.514,89.802C126.129,89.802 124.541,89.701 122.896,89.597C121.372,89.501 119.791,89.4 118.075,89.4C116.638,89.4 114.681,89.698 112.621,90.663C111.035,91.405 109.371,92.552 107.803,94.276L107.772,94.306C107.567,94.526 107.207,94.905 106.82,95.312C102.018,100.36 91.55,111.363 91.55,132.403C91.55,155.155 108.4,177.362 110.857,180.6L110.872,180.6L110.897,180.632L110.893,180.635C111.194,181.028 111.605,181.627 112.2,182.498C118.687,191.988 148.512,235.608 193.327,253.111C233.746,268.882 240.217,267.316 245.999,265.917C247.435,265.57 248.837,265.231 250.668,265.061C255.095,264.646 262.706,261.357 269.377,256.699C274.608,253.046 279.09,248.661 280.627,244.387C282.289,239.759 283.236,235.396 283.682,231.77C284.197,227.584 284.158,224.906 283.812,224.329L283.816,224.327ZM281.702,214.379C285.924,216.373 288.74,217.703 290.368,220.384L290.382,220.399C291.453,222.187 292.026,226.816 291.302,232.7C290.803,236.749 289.729,241.67 287.828,246.967C285.697,252.891 280.132,258.517 273.757,262.969C266.072,268.335 256.94,272.157 251.358,272.681C250.118,272.796 248.972,273.074 247.798,273.358C240.905,275.026 233.187,276.893 190.537,260.25C143.523,241.888 112.597,196.658 105.87,186.819C105.298,185.983 104.912,185.417 104.807,185.283L104.777,185.252L104.752,185.219L104.762,185.212C102.085,181.685 83.87,157.663 83.87,132.403C83.87,108.323 95.798,95.784 101.27,90.032C101.544,89.744 101.797,89.478 102.134,89.117L102.133,89.116C104.433,86.589 106.945,84.873 109.381,83.732C112.666,82.195 115.785,81.72 118.075,81.72C119.797,81.72 121.62,81.835 123.376,81.947C124.78,82.036 126.135,82.122 127.514,82.122C127.849,82.122 128.099,82.105 128.358,82.089C132.31,81.832 137.462,81.497 142.125,92.612C142.619,93.791 145.143,99.886 147.789,106.278C151.929,116.275 156.42,127.123 157.198,128.69L157.192,128.692C157.988,130.25 158.64,131.99 158.842,133.938C159.059,136.032 158.76,138.268 157.595,140.617L157.58,140.631C157.336,141.117 157.094,141.611 156.864,142.082C155.538,144.79 154.556,146.796 152.187,149.551L152.172,149.566C151.199,150.687 150.398,151.649 149.598,152.611C147.842,154.722 146.091,156.827 144.544,158.371L144.552,158.379L144.551,158.379C143.152,159.778 141.637,161.294 143.001,163.633C144.729,166.615 149.076,173.694 155.509,181.641C159.484,186.55 164.243,191.783 169.651,196.569C184.769,209.955 198.034,215.678 204.845,218.617C206.191,219.198 207.283,219.668 208.403,220.229C210.154,221.089 211.419,221.466 212.339,221.356C213.002,221.276 213.679,220.79 214.463,219.896L214.463,219.881C216.3,217.794 220.61,212.825 224.222,208.4C226.503,205.606 228.59,202.937 229.775,201.158L229.783,201.163C232.141,197.589 234.686,196.086 237.603,195.757C240.176,195.468 242.576,196.215 245.331,197.206C247.289,197.908 252.234,200.167 257.798,202.798C266.411,206.87 276.486,211.795 279.398,213.277L279.395,213.282C280.161,213.652 280.957,214.028 281.702,214.379Z" style="fill:white;fill-rule:nonzero;"/>
    </g>
</svg>
